<svg id="Staff_pick" data-name="Staff pick" xmlns="http://www.w3.org/2000/svg" width="22" height="21" viewBox="0 0 22 21">
  <g id="check-decagram" transform="translate(-1 -1.5)">
    <path id="Path_3" data-name="Path 3" d="M10,14.2,7.4,11.6,6,13l4,4,8-8L16.6,7.6Z" fill="#fff"/>
    <path id="Path_4" data-name="Path 4" d="M23,12,20.6,9.2l.3-3.7-3.6-.8L15.4,1.5,12,3,8.6,1.5,6.7,4.7l-3.6.8.3,3.7L1,12l2.4,2.8-.3,3.7,3.6.8,1.9,3.2L12,21l3.4,1.5,1.9-3.2,3.6-.8-.3-3.7ZM10,17,6,13l1.4-1.4L10,14.2l6.6-6.6L18,9Z" fill="#cc4a83"/>
  </g>
</svg>
